<?xml version="1.0" encoding="utf-8"?>
<!-- Generator: Adobe Illustrator 24.0.0, SVG Export Plug-In . SVG Version: 6.00 Build 0)  -->
<svg version="1.1" id="Layer_1" xmlns="http://www.w3.org/2000/svg" xmlns:xlink="http://www.w3.org/1999/xlink" x="0px"
     y="0px"
     viewBox="0 0 256 256" style="enable-background:new 0 0 256 256;" xml:space="preserve">
	<style type="text/css">
		.st0{fill:#382B73;}
		.st1{fill:#291B4A;}
		.st2{fill:#ED9ABC;}
		.st3{fill:#E54890;}
		.st4{fill:#D3D3D3;}
		.st5{fill:#EBE7F2;}
		.st6{fill:#F9B087;}
		.st7{fill:#FF8639;}
		.st8{fill:#65C1D6;}
		.st9{fill:#149CB2;}
	</style>
    <g>
		<g>
			<g>
				<g>
					<g>
						<circle class="st0" cx="128" cy="128" r="119.4"/>
					</g>
				</g>
			</g>
		</g>
        <g>
			<g>
				<g>
					<g>
						<path class="st1" d="M56.531,68.521h33.813c1.381,0,2.5-1.119,2.5-2.5s-1.119-2.5-2.5-2.5H56.531
							c-3.369,0-6.109,2.741-6.109,6.109v103.445c0,3.369,2.741,6.109,6.109,6.109h142.938c3.369,0,6.109-2.741,6.109-6.109V69.63
							c0-3.369-2.74-6.109-6.109-6.109h-33.813c-1.381,0-2.5,1.119-2.5,2.5s1.119,2.5,2.5,2.5h33.813
							c0.611,0,1.109,0.498,1.109,1.109v103.445c0,0.612-0.498,1.109-1.109,1.109H56.531c-0.612,0-1.109-0.498-1.109-1.109V69.63
							C55.421,69.018,55.919,68.521,56.531,68.521z"/>
					</g>
				</g>
			</g>
            <g>
				<g>
					<g>
						<path class="st1" d="M96.512,81.48c1.381,0,2.5-1.119,2.5-2.5s-1.119-2.5-2.5-2.5H66.021c-1.381,0-2.5,1.119-2.5,2.5v77.189
							c0,1.381,1.119,2.5,2.5,2.5h123.958c1.381,0,2.5-1.119,2.5-2.5V78.98c0-1.381-1.119-2.5-2.5-2.5h-30.807
							c-1.381,0-2.5,1.119-2.5,2.5s1.119,2.5,2.5,2.5h28.307v72.189H68.521V81.48H96.512z"/>
					</g>
				</g>
			</g>
            <g>
				<g>
					<g>
						<path class="st1" d="M116.28,185.327c0.083-1.378-0.966-2.563-2.344-2.647c-1.371-0.075-2.563,0.966-2.647,2.344
							c-0.321,5.281-3.792,10.083-10.584,14.664h-7.959c-4.317,0-7.829,3.512-7.829,7.829s3.512,7.829,7.829,7.829h70.508
							c4.317,0,7.829-3.512,7.829-7.829s-3.512-7.829-7.829-7.829h-7.958c-6.792-4.581-10.264-9.382-10.586-14.664
							c-0.084-1.378-1.265-2.423-2.647-2.344c-1.378,0.084-2.427,1.27-2.343,2.647c0.319,5.24,2.782,9.98,7.489,14.36h-38.417
							C113.498,195.307,115.961,190.567,116.28,185.327z M154.53,204.688c0.002,0,0.004-0.001,0.006-0.001h8.718
							c1.56,0,2.829,1.269,2.829,2.829s-1.27,2.829-2.829,2.829H92.746c-1.56,0-2.829-1.269-2.829-2.829s1.269-2.829,2.829-2.829
							h8.718c0.002,0,0.004,0.001,0.006,0.001H154.53z"/>
					</g>
				</g>
			</g>
            <g>
				<g>
					<g>
						<path class="st1" d="M97.844,63.11v5.821c0,2.309,1.561,4.327,3.8,4.907l4.614,1.189l-2.424,4.106
							c-1.171,1.99-0.848,4.521,0.785,6.153l4.116,4.116c1.633,1.633,4.165,1.956,6.156,0.782l4.104-2.422l1.19,4.617
							c0.579,2.235,2.596,3.797,4.905,3.797h5.821c2.311,0,4.327-1.562,4.906-3.8l1.189-4.614l4.106,2.424
							c1.991,1.171,4.521,0.847,6.153-0.784l4.117-4.117c1.632-1.633,1.954-4.164,0.781-6.156l-2.422-4.103l4.617-1.19
							c2.235-0.579,3.797-2.596,3.797-4.906V63.11c0-2.31-1.562-4.327-3.797-4.906c-0.001,0-0.002-0.001-0.003-0.001l-4.614-1.189
							l2.423-4.105c1.172-1.99,0.85-4.52-0.783-6.154l-4.117-4.118c-1.632-1.631-4.162-1.952-6.155-0.781l-4.104,2.422l-1.19-4.616
							c-0.578-2.236-2.595-3.798-4.905-3.798h-5.821c-2.309,0-4.326,1.562-4.906,3.8l-1.189,4.614l-4.106-2.424
							c-1.989-1.17-4.52-0.849-6.153,0.784l-4.116,4.116c-1.633,1.633-1.956,4.163-0.783,6.156l2.422,4.103l-4.617,1.19
							C99.405,58.783,97.844,60.801,97.844,63.11z M102.891,63.045l7.833-2.018c0.761-0.196,1.385-0.738,1.686-1.464
							c0.301-0.726,0.243-1.551-0.157-2.228l-4.1-7.045l4.196-4.128l6.966,4.111c0.676,0.399,1.501,0.458,2.227,0.157
							s1.269-0.925,1.464-1.686l2.083-7.88l5.885,0.048l2.019,7.833c0.196,0.761,0.738,1.385,1.464,1.686
							c0.728,0.301,1.552,0.243,2.228-0.157l7.046-4.1l4.127,4.196l-4.111,6.966c-0.399,0.676-0.457,1.501-0.156,2.227
							c0.301,0.726,0.925,1.269,1.686,1.464l7.881,2.083l-0.048,5.886l-7.833,2.018c-0.761,0.196-1.385,0.738-1.686,1.464
							c-0.301,0.726-0.243,1.551,0.156,2.228l4.101,7.045l-4.196,4.128l-6.966-4.111c-0.676-0.4-1.501-0.458-2.228-0.157
							c-0.726,0.3-1.268,0.925-1.464,1.686l-2.083,7.88l-5.885-0.047l-2.018-7.833c-0.196-0.761-0.738-1.385-1.464-1.686
							c-0.307-0.127-0.632-0.19-0.957-0.19c-0.441,0-0.881,0.117-1.271,0.347l-7.045,4.1l-4.128-4.196l4.112-6.965
							c0.399-0.677,0.458-1.502,0.157-2.228c-0.3-0.726-0.925-1.269-1.686-1.464l-7.88-2.083L102.891,63.045z"/>
					</g>
				</g>
			</g>
            <g>
				<g>
					<g>
						<path class="st1" d="M139.423,66.021c0-6.299-5.124-11.423-11.423-11.423c-6.298,0-11.423,5.125-11.423,11.423
							c0,6.298,5.125,11.423,11.423,11.423C134.299,77.443,139.423,72.319,139.423,66.021z M121.577,66.021
							c0-3.542,2.881-6.423,6.423-6.423c3.542,0,6.423,2.881,6.423,6.423c0,3.542-2.881,6.423-6.423,6.423
							C124.458,72.443,121.577,69.562,121.577,66.021z"/>
					</g>
				</g>
			</g>
            <g>
				<g>
					<g>
						<path class="st1" d="M108.676,141.98c1.381,0,2.5-1.119,2.5-2.5v-27.93c0-1.381-1.119-2.5-2.5-2.5H94.71
							c-1.381,0-2.5,1.119-2.5,2.5v27.93c0,1.381,1.119,2.5,2.5,2.5s2.5-1.119,2.5-2.5v-11.465h8.965v11.465
							C106.176,140.861,107.295,141.98,108.676,141.98z M97.21,123.016v-8.965h8.965v8.965H97.21z"/>
					</g>
				</g>
			</g>
            <g>
				<g>
					<g>
						<path class="st1" d="M123.518,139.48v-11.465h11.465c1.381,0,2.5-1.119,2.5-2.5V111.55c0-1.381-1.119-2.5-2.5-2.5h-13.965
							c-1.381,0-2.5,1.119-2.5,2.5v27.93c0,1.381,1.119,2.5,2.5,2.5S123.518,140.861,123.518,139.48z M123.518,114.05h8.965v8.965
							h-8.965V114.05z"/>
					</g>
				</g>
			</g>
            <g>
				<g>
					<g>
						<path class="st1" d="M147.324,136.98c-1.381,0-2.5,1.119-2.5,2.5s1.119,2.5,2.5,2.5h13.965c1.381,0,2.5-1.119,2.5-2.5
							s-1.119-2.5-2.5-2.5h-4.482v-22.93h4.482c1.381,0,2.5-1.119,2.5-2.5s-1.119-2.5-2.5-2.5h-13.965c-1.381,0-2.5,1.119-2.5,2.5
							s1.119,2.5,2.5,2.5h4.482v22.93H147.324z"/>
					</g>
				</g>
			</g>
		</g>
        <g>
			<g>
				<g>
					<g>
						<g>
							<g>
								<path class="st8" d="M116.28,181.327c0.083-1.378-0.966-2.563-2.344-2.647c-1.371-0.071-2.563,0.966-2.647,2.344
									c-0.331,5.438-3.99,10.368-11.187,15.071c-0.926,0.605-1.344,1.747-1.028,2.806c0.315,1.06,1.29,1.787,2.396,1.787h53.061
									c1.105,0,2.08-0.727,2.396-1.787c0.315-1.06-0.104-2.201-1.028-2.806c-7.197-4.704-10.857-9.633-11.188-15.071
									c-0.084-1.378-1.265-2.418-2.647-2.344c-1.378,0.084-2.427,1.27-2.343,2.647c0.319,5.24,2.782,9.98,7.489,14.36h-38.418
									C113.498,191.308,115.961,186.567,116.28,181.327z"/>
							</g>
						</g>
					</g>
                    <g>
						<g>
							<g>
								<g>
									<g>
										<path class="st8" d="M56.531,64.521h33.813c1.381,0,2.5-1.119,2.5-2.5s-1.119-2.5-2.5-2.5H56.531
											c-3.369,0-6.109,2.741-6.109,6.109v103.445c0,3.369,2.741,6.109,6.109,6.109h142.938c3.369,0,6.109-2.741,6.109-6.109
											V65.63c0-3.369-2.74-6.109-6.109-6.109h-33.813c-1.381,0-2.5,1.119-2.5,2.5s1.119,2.5,2.5,2.5h33.813
											c0.611,0,1.109,0.498,1.109,1.109v103.445c0,0.612-0.498,1.109-1.109,1.109H56.531c-0.612,0-1.109-0.498-1.109-1.109V65.63
											C55.421,65.018,55.919,64.521,56.531,64.521z"/>
									</g>
								</g>
							</g>
                            <g>
								<g>
									<g>
										<path class="st8" d="M96.512,77.48c1.381,0,2.5-1.119,2.5-2.5s-1.119-2.5-2.5-2.5H66.021c-1.381,0-2.5,1.119-2.5,2.5
											v77.189c0,1.381,1.119,2.5,2.5,2.5h123.958c1.381,0,2.5-1.119,2.5-2.5V74.98c0-1.381-1.119-2.5-2.5-2.5h-30.807
											c-1.381,0-2.5,1.119-2.5,2.5s1.119,2.5,2.5,2.5h28.307v72.189H68.521V77.48H96.512z"/>
									</g>
								</g>
							</g>
						</g>
					</g>
                    <g>
						<g>
							<g>
								<path class="st8" d="M163.254,211.345c4.317,0,7.829-3.512,7.829-7.829s-3.512-7.829-7.829-7.829H92.746
									c-4.317,0-7.829,3.512-7.829,7.829s3.512,7.829,7.829,7.829H163.254z M89.917,203.516c0-1.56,1.269-2.829,2.829-2.829h70.508
									c1.56,0,2.829,1.269,2.829,2.829s-1.27,2.829-2.829,2.829H92.746C91.186,206.345,89.917,205.076,89.917,203.516z"/>
							</g>
						</g>
					</g>
				</g>
                <g>
					<g>
						<g>
							<g>
								<g>
									<path class="st2" d="M97.844,59.11v5.821c0,2.309,1.561,4.327,3.8,4.907l4.614,1.189l-2.424,4.106
										c-1.171,1.99-0.848,4.521,0.785,6.153l4.116,4.116c1.633,1.633,4.165,1.955,6.156,0.782l4.104-2.422l1.19,4.617
										c0.579,2.235,2.596,3.797,4.905,3.797h5.821c2.311,0,4.327-1.562,4.906-3.8l1.189-4.614l4.106,2.424
										c1.991,1.171,4.521,0.848,6.153-0.784l4.117-4.117c1.632-1.633,1.954-4.164,0.781-6.156l-2.422-4.103l4.617-1.19
										c2.235-0.579,3.797-2.596,3.797-4.906V59.11c0-2.31-1.562-4.327-3.797-4.906c-0.001,0-0.002-0.001-0.003-0.001l-4.614-1.189
										l2.423-4.105c1.172-1.99,0.85-4.52-0.783-6.154l-4.117-4.118c-1.632-1.631-4.162-1.952-6.155-0.781l-4.104,2.422
										l-1.19-4.616c-0.578-2.236-2.595-3.798-4.905-3.798h-5.821c-2.309,0-4.326,1.562-4.906,3.8l-1.189,4.614l-4.106-2.424
										c-1.989-1.17-4.52-0.849-6.153,0.784l-4.116,4.116c-1.633,1.633-1.956,4.163-0.783,6.156l2.422,4.103l-4.617,1.19
										C99.405,54.783,97.844,56.801,97.844,59.11z M102.891,59.045l7.833-2.018c0.761-0.196,1.385-0.738,1.686-1.464
										c0.301-0.726,0.243-1.551-0.157-2.228l-4.1-7.045l4.196-4.128l6.966,4.111c0.676,0.4,1.501,0.458,2.227,0.157
										s1.269-0.925,1.464-1.686l2.083-7.88l5.885,0.048l2.019,7.833c0.196,0.761,0.738,1.385,1.464,1.686
										c0.728,0.301,1.552,0.244,2.228-0.157l7.046-4.1l4.127,4.196l-4.111,6.966c-0.399,0.676-0.457,1.501-0.156,2.227
										c0.301,0.726,0.925,1.269,1.686,1.464l7.881,2.083l-0.048,5.886l-7.833,2.018c-0.761,0.196-1.385,0.738-1.686,1.464
										c-0.301,0.726-0.243,1.551,0.156,2.228l4.101,7.045l-4.196,4.128l-6.966-4.111c-0.676-0.4-1.501-0.458-2.228-0.157
										c-0.726,0.3-1.268,0.925-1.464,1.686l-2.083,7.88l-5.885-0.047l-2.018-7.833c-0.196-0.761-0.738-1.385-1.464-1.686
										c-0.307-0.127-0.632-0.19-0.957-0.19c-0.441,0-0.881,0.117-1.271,0.347l-7.045,4.1l-4.128-4.196l4.112-6.965
										c0.399-0.677,0.458-1.502,0.157-2.228c-0.3-0.726-0.925-1.269-1.686-1.464l-7.88-2.083L102.891,59.045z"/>
								</g>
							</g>
						</g>
                        <g>
							<g>
								<g>
									<path class="st4" d="M139.423,62.021c0-6.299-5.124-11.423-11.423-11.423c-6.298,0-11.423,5.125-11.423,11.423
										c0,6.298,5.125,11.423,11.423,11.423C134.299,73.443,139.423,68.319,139.423,62.021z M121.577,62.021
										c0-3.542,2.881-6.423,6.423-6.423c3.542,0,6.423,2.881,6.423,6.423c0,3.542-2.881,6.423-6.423,6.423
										C124.458,68.443,121.577,65.562,121.577,62.021z"/>
								</g>
							</g>
						</g>
					</g>
				</g>
                <g>
					<g>
						<g>
							<g>
								<g>
									<path class="st2" d="M108.676,124.015c1.381,0,2.5-1.119,2.5-2.5V107.55c0-1.381-1.119-2.5-2.5-2.5H94.71
										c-1.381,0-2.5,1.119-2.5,2.5v13.965c0,1.381,1.119,2.5,2.5,2.5H108.676z M97.21,110.05h8.965v8.965H97.21V110.05z"/>
								</g>
							</g>
						</g>
                        <g>
							<g>
								<g>
									<path class="st2" d="M108.676,137.98c1.381,0,2.5-1.119,2.5-2.5v-13.965c0-1.381-1.119-2.5-2.5-2.5H94.71
										c-1.381,0-2.5,1.119-2.5,2.5v13.965c0,1.381,1.119,2.5,2.5,2.5s2.5-1.119,2.5-2.5v-11.465h8.965v11.465
										C106.176,136.861,107.295,137.98,108.676,137.98z"/>
								</g>
							</g>
						</g>
                        <g>
							<g>
								<g>
									<path class="st2" d="M134.982,124.015c1.381,0,2.5-1.119,2.5-2.5V107.55c0-1.381-1.119-2.5-2.5-2.5h-13.965
										c-1.381,0-2.5,1.119-2.5,2.5v13.965c0,1.381,1.119,2.5,2.5,2.5H134.982z M123.518,110.05h8.965v8.965h-8.965V110.05z"/>
								</g>
							</g>
						</g>
                        <g>
							<g>
								<g>
									<path class="st2" d="M123.518,135.48v-11.465h11.465c1.381,0,2.5-1.119,2.5-2.5s-1.119-2.5-2.5-2.5h-13.965
										c-1.381,0-2.5,1.119-2.5,2.5v13.965c0,1.381,1.119,2.5,2.5,2.5S123.518,136.861,123.518,135.48z"/>
								</g>
							</g>
						</g>
                        <g>
							<g>
								<g>
									<path class="st2" d="M161.289,110.05c1.381,0,2.5-1.119,2.5-2.5s-1.119-2.5-2.5-2.5h-13.965c-1.381,0-2.5,1.119-2.5,2.5
										s1.119,2.5,2.5,2.5H161.289z"/>
								</g>
							</g>
						</g>
                        <g>
							<g>
								<g>
									<path class="st2" d="M161.289,137.98c1.381,0,2.5-1.119,2.5-2.5s-1.119-2.5-2.5-2.5h-13.965c-1.381,0-2.5,1.119-2.5,2.5
										s1.119,2.5,2.5,2.5H161.289z"/>
								</g>
							</g>
						</g>
					</g>
                    <g>
						<g>
							<g>
								<path class="st2" d="M156.807,135.48v-27.93c0-1.381-1.119-2.5-2.5-2.5c-1.381,0-2.5,1.119-2.5,2.5v27.93
									c0,1.381,1.119,2.5,2.5,2.5C155.687,137.98,156.807,136.861,156.807,135.48z"/>
							</g>
						</g>
					</g>
				</g>
                <g>
					<g>
						<g>
							<g>
								<path class="st3" d="M97.844,59.11v5.821c0,2.309,1.561,4.327,3.8,4.907l4.614,1.189l-2.424,4.106
									c-1.171,1.99-0.848,4.521,0.785,6.153l4.116,4.116c0.976,0.976,2.274,1.484,3.585,1.484c0.882,0,1.77-0.23,2.571-0.702
									l4.104-2.422l1.19,4.617c0.579,2.235,2.596,3.797,4.905,3.797h5.821c2.311,0,4.327-1.562,4.906-3.8l1.189-4.614l4.106,2.424
									c0.8,0.471,1.687,0.7,2.568,0.7c1.311,0,2.609-0.508,3.585-1.484l4.117-4.117c1.632-1.633,1.954-4.164,0.781-6.156
									l-2.422-4.103l4.617-1.19c2.235-0.579,3.797-2.596,3.797-4.906V59.11c0-2.31-1.562-4.327-3.797-4.906
									c-0.001,0-0.002-0.001-0.003-0.001l-4.614-1.189l2.423-4.105c1.172-1.99,0.85-4.52-0.783-6.154l-4.117-4.118
									c-0.975-0.975-2.272-1.482-3.582-1.482c-0.882,0-1.771,0.23-2.573,0.701l-4.104,2.422l-1.19-4.616
									c-0.578-2.236-2.595-3.798-4.905-3.798h-5.821c-2.309,0-4.326,1.562-4.906,3.8l-1.189,4.614l-4.106-2.424
									c-0.8-0.471-1.687-0.7-2.568-0.7c-1.311,0-2.608,0.508-3.584,1.484l-4.116,4.116c-1.633,1.633-1.956,4.163-0.783,6.156
									l2.422,4.103l-4.617,1.19C99.405,54.783,97.844,56.801,97.844,59.11z M106.632,54.467c0.456-0.118,0.831-0.443,1.011-0.879
									c0.18-0.435,0.146-0.93-0.094-1.336l-2.421-4.101c-0.825-1.403-0.599-3.185,0.551-4.335l4.116-4.116
									c0.673-0.674,1.57-1.045,2.524-1.045c0.635,0,1.26,0.17,1.806,0.492l4.106,2.424c0.234,0.138,0.498,0.208,0.763,0.208
									c0.194,0,0.39-0.038,0.574-0.114c0.436-0.18,0.761-0.555,0.879-1.011l1.188-4.612c0.408-1.576,1.829-2.677,3.454-2.677h5.821
									c1.626,0,3.046,1.099,3.453,2.672l1.19,4.616c0.118,0.456,0.443,0.831,0.879,1.011c0.184,0.076,0.379,0.114,0.574,0.114
									c0.265,0,0.528-0.07,0.762-0.208l4.101-2.42c0.55-0.323,1.177-0.494,1.813-0.494c0.954,0,1.849,0.37,2.522,1.042l4.117,4.117
									c1.15,1.15,1.376,2.932,0.552,4.331l-2.423,4.105c-0.24,0.406-0.274,0.901-0.094,1.336c0.18,0.435,0.555,0.761,1.012,0.878
									l4.593,1.183c0.007,0.002,0.015,0.004,0.022,0.006c1.574,0.408,2.673,1.828,2.673,3.454v5.821
									c0,1.626-1.099,3.046-2.671,3.453l-4.617,1.19c-0.457,0.118-0.831,0.443-1.012,0.879s-0.146,0.931,0.094,1.336l2.421,4.101
									c0.826,1.403,0.6,3.185-0.549,4.335l-4.117,4.116c-0.674,0.674-1.571,1.045-2.525,1.045c-0.634,0-1.259-0.17-1.806-0.492
									l-4.106-2.424c-0.234-0.138-0.498-0.208-0.763-0.208c-0.194,0-0.39,0.038-0.574,0.114c-0.435,0.18-0.761,0.555-0.879,1.011
									l-1.189,4.613c-0.408,1.575-1.828,2.676-3.454,2.676h-5.821c-1.625,0-3.045-1.099-3.453-2.671l-1.19-4.617
									c-0.118-0.456-0.443-0.831-0.878-1.012c-0.184-0.076-0.38-0.114-0.574-0.114c-0.265,0-0.528,0.07-0.762,0.208l-4.102,2.421
									c-0.549,0.323-1.175,0.494-1.81,0.494c-0.954,0-1.85-0.371-2.524-1.044l-4.116-4.116c-1.149-1.149-1.377-2.93-0.553-4.33
									l2.424-4.106c0.24-0.406,0.274-0.901,0.094-1.336c-0.18-0.435-0.555-0.761-1.011-0.879l-4.612-1.188
									c-1.576-0.408-2.676-1.829-2.676-3.455V59.11c0-1.626,1.099-3.046,2.671-3.453L106.632,54.467z"/>
                                <path class="st3" d="M102.46,66.381l7.89,2.086c0.302,0.078,0.554,0.296,0.674,0.586c0.12,0.288,0.096,0.621-0.063,0.891
									l-4.112,6.965c-0.346,0.585-0.254,1.33,0.223,1.815l4.128,4.196c0.29,0.294,0.678,0.448,1.07,0.448
									c0.258,0,0.519-0.067,0.754-0.204l7.055-4.105c0.153-0.09,0.328-0.138,0.507-0.138c0.132,0,0.26,0.026,0.382,0.076
									c0.289,0.12,0.508,0.372,0.586,0.674l2.018,7.833c0.17,0.658,0.761,1.12,1.44,1.126l5.885,0.047c0.004,0,0.008,0,0.012,0
									c0.68,0,1.276-0.458,1.45-1.117l2.085-7.889c0.078-0.303,0.297-0.555,0.586-0.675c0.122-0.051,0.251-0.076,0.383-0.076
									c0.178,0,0.353,0.048,0.508,0.139l6.966,4.111c0.237,0.14,0.5,0.208,0.762,0.208c0.384,0,0.764-0.147,1.052-0.431
									l4.196-4.128c0.489-0.481,0.589-1.232,0.245-1.824l-4.105-7.053c-0.159-0.269-0.182-0.602-0.062-0.891
									c0.12-0.289,0.372-0.508,0.674-0.586l7.833-2.018c0.658-0.17,1.12-0.761,1.126-1.44l0.048-5.886
									c0.006-0.685-0.454-1.287-1.117-1.462l-7.89-2.085c-0.302-0.078-0.554-0.297-0.674-0.586c-0.12-0.289-0.096-0.621,0.062-0.89
									l4.111-6.966c0.345-0.585,0.254-1.33-0.222-1.814l-4.127-4.196c-0.29-0.295-0.678-0.448-1.07-0.448
									c-0.258,0-0.519,0.067-0.754,0.204l-7.056,4.106c-0.153,0.09-0.327,0.138-0.505,0.138c-0.132,0-0.261-0.026-0.385-0.077
									c-0.288-0.119-0.507-0.371-0.585-0.674l-2.019-7.833c-0.17-0.658-0.761-1.12-1.44-1.126l-5.885-0.048
									c-0.004,0-0.008,0-0.012,0c-0.68,0-1.276,0.458-1.45,1.117l-2.085,7.89c-0.078,0.302-0.297,0.554-0.586,0.674
									c-0.122,0.051-0.251,0.076-0.383,0.076c-0.178,0-0.353-0.048-0.507-0.139l-6.966-4.111c-0.237-0.14-0.5-0.208-0.762-0.208
									c-0.384,0-0.764,0.147-1.052,0.431l-4.196,4.128c-0.489,0.481-0.589,1.231-0.244,1.824l4.104,7.053
									c0.159,0.269,0.182,0.602,0.063,0.891c-0.12,0.289-0.372,0.508-0.674,0.586l-7.833,2.018c-0.658,0.17-1.12,0.761-1.126,1.44
									l-0.047,5.886C101.338,65.604,101.798,66.206,102.46,66.381z M102.891,59.045l7.833-2.018
									c0.761-0.196,1.385-0.738,1.686-1.464c0.301-0.726,0.243-1.551-0.157-2.228l-4.1-7.045l4.196-4.128l6.966,4.111
									c0.389,0.23,0.829,0.347,1.27,0.347c0.324,0,0.65-0.063,0.957-0.191c0.726-0.301,1.269-0.925,1.464-1.686l2.083-7.88
									l5.885,0.048l2.019,7.833c0.196,0.761,0.738,1.385,1.464,1.686c0.308,0.128,0.634,0.191,0.958,0.191
									c0.441,0,0.88-0.117,1.269-0.348l7.046-4.1l4.127,4.196l-4.111,6.966c-0.399,0.676-0.457,1.501-0.156,2.227
									c0.301,0.726,0.925,1.269,1.686,1.464l7.881,2.083l-0.048,5.886l-7.833,2.018c-0.761,0.196-1.385,0.738-1.686,1.464
									c-0.301,0.726-0.243,1.551,0.156,2.228l4.101,7.045l-4.196,4.128l-6.966-4.111c-0.39-0.231-0.829-0.347-1.27-0.347
									c-0.324,0-0.65,0.063-0.957,0.191c-0.726,0.3-1.268,0.925-1.464,1.686l-2.083,7.88l-5.885-0.047l-2.018-7.833
									c-0.196-0.761-0.738-1.385-1.464-1.686c-0.307-0.127-0.632-0.19-0.957-0.19c-0.441,0-0.881,0.117-1.271,0.347l-7.045,4.1
									l-4.128-4.196l4.112-6.965c0.399-0.677,0.458-1.502,0.157-2.228c-0.3-0.726-0.925-1.269-1.686-1.464l-7.88-2.083
									L102.891,59.045z"/>
							</g>
						</g>
					</g>
                    <g>
						<g>
							<g>
								<path class="st3" d="M108.676,137.98c1.381,0,2.5-1.119,2.5-2.5v-27.93c0-1.381-1.119-2.5-2.5-2.5H94.71
									c-1.381,0-2.5,1.119-2.5,2.5v27.93c0,1.381,1.119,2.5,2.5,2.5s2.5-1.119,2.5-2.5v-11.465h8.965v11.465
									C106.176,136.861,107.295,137.98,108.676,137.98z M97.21,122.515c-0.828,0-1.5,0.672-1.5,1.5v11.465c0,0.551-0.449,1-1,1
									s-1-0.449-1-1v-27.93c0-0.551,0.449-1,1-1h13.965c0.551,0,1,0.449,1,1v27.93c0,0.551-0.449,1-1,1s-1-0.449-1-1v-11.465
									c0-0.828-0.672-1.5-1.5-1.5H97.21z"/>
                                <path class="st3" d="M107.676,119.015v-8.965c0-0.828-0.672-1.5-1.5-1.5H97.21c-0.828,0-1.5,0.672-1.5,1.5v8.965
									c0,0.828,0.672,1.5,1.5,1.5h8.965C107.004,120.515,107.676,119.844,107.676,119.015z M97.21,110.05h8.965v8.965H97.21V110.05
									z"/>
							</g>
						</g>
					</g>
                    <g>
						<g>
							<g>
								<path class="st3" d="M123.518,120.515h8.965c0.828,0,1.5-0.672,1.5-1.5v-8.965c0-0.828-0.672-1.5-1.5-1.5h-8.965
									c-0.828,0-1.5,0.672-1.5,1.5v8.965C122.018,119.844,122.689,120.515,123.518,120.515z M123.518,110.05h8.965v8.965h-8.965
									V110.05z"/>
                                <path class="st3" d="M123.518,135.48v-11.465h11.465c1.381,0,2.5-1.119,2.5-2.5V107.55c0-1.381-1.119-2.5-2.5-2.5h-13.965
									c-1.381,0-2.5,1.119-2.5,2.5v27.93c0,1.381,1.119,2.5,2.5,2.5S123.518,136.861,123.518,135.48z M120.018,135.48v-27.93
									c0-0.551,0.449-1,1-1h13.965c0.551,0,1,0.449,1,1v13.965c0,0.551-0.449,1-1,1h-11.465c-0.828,0-1.5,0.672-1.5,1.5v11.465
									c0,0.551-0.449,1-1,1S120.018,136.032,120.018,135.48z"/>
							</g>
						</g>
					</g>
                    <g>
						<g>
							<g>
								<path class="st3" d="M147.324,132.98c-1.381,0-2.5,1.119-2.5,2.5s1.119,2.5,2.5,2.5h13.965c1.381,0,2.5-1.119,2.5-2.5
									s-1.119-2.5-2.5-2.5h-4.482v-22.93h4.482c1.381,0,2.5-1.119,2.5-2.5s-1.119-2.5-2.5-2.5h-13.965c-1.381,0-2.5,1.119-2.5,2.5
									s1.119,2.5,2.5,2.5h4.482v22.93H147.324z M151.807,108.55h-4.482c-0.551,0-1-0.449-1-1s0.449-1,1-1h13.965
									c0.551,0,1,0.449,1,1s-0.449,1-1,1h-4.482c-0.828,0-1.5,0.672-1.5,1.5v22.93c0,0.828,0.672,1.5,1.5,1.5h4.482
									c0.551,0,1,0.449,1,1s-0.449,1-1,1h-13.965c-0.551,0-1-0.449-1-1s0.449-1,1-1h4.482c0.828,0,1.5-0.672,1.5-1.5v-22.93
									C153.307,109.222,152.635,108.55,151.807,108.55z"/>
							</g>
						</g>
					</g>
				</g>
			</g>
            <g>
				<g>
					<g>
						<g>
							<path class="st9" d="M56.531,64.521h33.813c1.381,0,2.5-1.119,2.5-2.5s-1.119-2.5-2.5-2.5H56.531
								c-3.369,0-6.109,2.741-6.109,6.109v103.445c0,3.369,2.741,6.109,6.109,6.109h142.938c3.369,0,6.109-2.741,6.109-6.109V65.63
								c0-3.369-2.74-6.109-6.109-6.109h-33.813c-1.381,0-2.5,1.119-2.5,2.5s1.119,2.5,2.5,2.5h33.813
								c0.611,0,1.109,0.498,1.109,1.109v103.445c0,0.612-0.498,1.109-1.109,1.109H56.531c-0.612,0-1.109-0.498-1.109-1.109V65.63
								C55.421,65.018,55.919,64.521,56.531,64.521z M56.531,171.685h142.938c1.439,0,2.609-1.171,2.609-2.609V65.63
								c0-1.439-1.171-2.609-2.609-2.609h-33.813c-0.551,0-1-0.449-1-1s0.449-1,1-1h33.813c2.542,0,4.609,2.068,4.609,4.609v103.445
								c0,2.542-2.068,4.609-4.609,4.609H56.531c-2.542,0-4.609-2.068-4.609-4.609V65.63c0-2.542,2.068-4.609,4.609-4.609h33.813
								c0.551,0,1,0.449,1,1s-0.449,1-1,1H56.531c-1.439,0-2.609,1.171-2.609,2.609v103.445
								C53.921,170.514,55.092,171.685,56.531,171.685z"/>
						</g>
					</g>
				</g>
                <g>
					<g>
						<g>
							<path class="st9" d="M96.512,77.48c1.381,0,2.5-1.119,2.5-2.5s-1.119-2.5-2.5-2.5H66.021c-1.381,0-2.5,1.119-2.5,2.5v77.189
								c0,1.381,1.119,2.5,2.5,2.5h123.958c1.381,0,2.5-1.119,2.5-2.5V74.98c0-1.381-1.119-2.5-2.5-2.5h-30.807
								c-1.381,0-2.5,1.119-2.5,2.5s1.119,2.5,2.5,2.5h28.307v72.189H68.521V77.48H96.512z M68.521,151.169h118.958
								c0.828,0,1.5-0.672,1.5-1.5V77.48c0-0.828-0.672-1.5-1.5-1.5h-28.307c-0.551,0-1-0.449-1-1s0.449-1,1-1h30.807
								c0.551,0,1,0.449,1,1v77.189c0,0.551-0.449,1-1,1H66.021c-0.551,0-1-0.449-1-1V74.98c0-0.551,0.449-1,1-1h30.491
								c0.551,0,1,0.449,1,1s-0.449,1-1,1H68.521c-0.828,0-1.5,0.672-1.5,1.5v72.189C67.021,150.497,67.693,151.169,68.521,151.169z"
                            />
						</g>
					</g>
				</g>
                <g>
					<g>
						<g>
							<path class="st9" d="M116.28,181.327c0.083-1.378-0.966-2.563-2.344-2.647c-0.044-0.002-0.089-0.003-0.132-0.003
								c-1.315,0-2.434,1.014-2.515,2.347c-0.321,5.281-3.792,10.083-10.584,14.664h-7.959c-4.317,0-7.829,3.512-7.829,7.829
								s3.512,7.829,7.829,7.829h70.508c4.317,0,7.829-3.512,7.829-7.829s-3.512-7.829-7.829-7.829h-7.958
								c-6.792-4.581-10.264-9.382-10.586-14.664c-0.081-1.332-1.186-2.347-2.508-2.348c-0.046,0-0.093,0.001-0.14,0.004
								c-1.378,0.084-2.427,1.27-2.343,2.647c0.319,5.24,2.782,9.98,7.489,14.36h-38.417
								C113.498,191.307,115.961,186.567,116.28,181.327z M107.77,194.589c-0.451,0.42-0.6,1.073-0.374,1.647
								s0.779,0.951,1.396,0.951h38.417c0.617,0,1.17-0.377,1.396-0.951s0.077-1.227-0.374-1.647
								c-4.423-4.115-6.717-8.483-7.013-13.353c-0.034-0.55,0.387-1.025,0.926-1.058l0.059-0.002c0.534,0,0.978,0.412,1.01,0.939
								c0.352,5.777,4.03,10.95,11.244,15.816c0.248,0.167,0.54,0.256,0.839,0.256h7.958c3.49,0,6.329,2.839,6.329,6.329
								s-2.839,6.329-6.329,6.329H92.746c-3.49,0-6.329-2.839-6.329-6.329s2.839-6.329,6.329-6.329h7.959
								c0.299,0,0.591-0.089,0.839-0.256c7.214-4.866,10.891-10.039,11.243-15.816c0.032-0.526,0.479-0.938,1.018-0.938l0.041,0.001
								c0.55,0.034,0.971,0.509,0.938,1.059C114.487,186.105,112.193,190.473,107.77,194.589z"/>
                            <path class="st9" d="M101.464,199.187h-8.718c-2.387,0-4.329,1.942-4.329,4.329s1.942,4.329,4.329,4.329h70.508
								c2.387,0,4.329-1.942,4.329-4.329s-1.942-4.329-4.329-4.329h-8.718c-0.012,0-0.025,0-0.037,0.001h-52.998
								C101.489,199.187,101.476,199.187,101.464,199.187z M154.53,200.688c0.002,0,0.004-0.001,0.006-0.001h8.718
								c1.56,0,2.829,1.269,2.829,2.829s-1.27,2.829-2.829,2.829H92.746c-1.56,0-2.829-1.269-2.829-2.829s1.269-2.829,2.829-2.829
								h8.718c0.002,0,0.004,0.001,0.006,0.001H154.53z"/>
						</g>
					</g>
				</g>
			</g>
            <g>
				<g>
					<g>
						<g>
							<path class="st5" d="M135.923,62.021c0-4.369-3.554-7.923-7.923-7.923s-7.923,3.554-7.923,7.923
								c0,4.369,3.554,7.923,7.923,7.923S135.923,66.389,135.923,62.021z M121.577,62.021c0-3.542,2.881-6.423,6.423-6.423
								c3.542,0,6.423,2.881,6.423,6.423c0,3.542-2.881,6.423-6.423,6.423C124.458,68.443,121.577,65.562,121.577,62.021z"/>
                            <path class="st5" d="M139.423,62.021c0-6.299-5.124-11.423-11.423-11.423c-6.298,0-11.423,5.125-11.423,11.423
								c0,6.298,5.125,11.423,11.423,11.423C134.299,73.443,139.423,68.319,139.423,62.021z M118.077,62.021
								c0-5.472,4.451-9.923,9.923-9.923s9.923,4.452,9.923,9.923c0,5.471-4.451,9.923-9.923,9.923S118.077,67.492,118.077,62.021z"
                            />
						</g>
					</g>
				</g>
			</g>
		</g>
	</g>
	</svg>
